<?xml version="1.0" encoding="utf-8"?>
<!-- Generator: Adobe Illustrator 22.1.0, SVG Export Plug-In . SVG Version: 6.00 Build 0)  -->
<svg version="1.1" id="Layer_1" xmlns="http://www.w3.org/2000/svg" xmlns:xlink="http://www.w3.org/1999/xlink" x="0px" y="0px"
	 viewBox="0 0 1366 602.8" style="enable-background:new 0 0 1366 602.8;" xml:space="preserve">
<style type="text/css">
	.st0{display:none;enable-background:new    ;}
	.st1{fill:#7E23AC;}
	.st2{fill:#972DBA;}
	.st3{fill:#A103A0;}
	.st4{fill:#6B1999;}
	.st5{fill:#8226AD;}
	.st6{fill:#66278F;}
	.st7{fill:#A125C3;}
	.st8{fill:#A0019B;}
	.st9{fill:#AC2AD2;}
	.st10{fill:#761F7D;}
	.st11{fill:#9D2EA6;}
	.st12{fill:#AB2FCD;}
	.st13{fill:#6E3681;}
	.st14{fill:#9F2DA6;}
	.st15{fill:#AD00C1;}
	.st16{fill:#AB00C0;}
	.st17{fill:#6B3684;}
	.st18{fill:#9B3F94;}
	.st19{fill:#A1029A;}
	.st20{fill:#85268C;}
	.st21{fill:#FF859A;}
	.st22{fill:#EA566E;}
	.st23{fill:#E85571;}
	.st24{fill:#D52F55;}
	.st25{fill:#FF6380;}
	.st26{fill:#D63056;}
	.st27{fill:#DC476D;}
	.st28{fill:#FA8598;}
	.st29{fill:#E2215A;}
	.st30{fill:#E73861;}
	.st31{fill:#FF86A5;}
	.st32{fill:#E83962;}
	.st33{fill:#E53B68;}
	.st34{fill:#FF6481;}
	.st35{fill:#E63A62;}
	.st36{fill:#FF8597;}
	.st37{fill:#E84573;}
	.st38{fill:#D9406E;}
	.st39{fill:#DE2E5F;}
	.st40{fill:#FB8196;}
	.st41{fill:#E52D61;}
	.st42{fill:#FF627E;}
	.st43{fill:#DD3F6F;}
	.st44{fill:#D7436D;}
	.st45{fill:#DF4070;}
	.st46{fill:#074054;}
	.st47{fill:#13678C;}
	.st48{fill:#228BB8;}
	.st49{fill:#015583;}
	.st50{fill:#095970;}
	.st51{fill:#196889;}
	.st52{fill:#0783A5;}
	.st53{fill:#08445C;}
	.st54{fill:#0A586E;}
	.st55{fill:#0783A9;}
	.st56{fill:#2EA0D6;}
	.st57{fill:#0B445F;}
	.st58{fill:#5FBAE2;}
	.st59{fill:#186889;}
	.st60{fill:#0A445C;}
	.st61{fill:#15759D;}
	.st62{fill:#074A5B;}
	.st63{fill:#228BBA;}
	.st64{fill:#07596F;}
	.st65{fill:#00394B;}
	.st66{fill:#1376A0;}
	.st67{fill:#064860;}
	.st68{fill:#EB480A;enable-background:new    ;}
	.st69{fill:#AC2D05;enable-background:new    ;}
	.st70{fill:#FF6F49;enable-background:new    ;}
	.st71{fill:#FD5E00;}
	.st72{fill:#AD2C03;enable-background:new    ;}
	.st73{fill:#EB480A;}
	.st74{fill:#FF5B06;enable-background:new    ;}
	.st75{fill:#FF5B06;}
	.st76{fill:#FD6E4A;enable-background:new    ;}
	.st77{fill:#DB3D07;enable-background:new    ;}
	.st78{fill:#DB3D07;}
	.st79{fill:#FE5118;}
	.st80{fill:#AD2C03;}
	.st81{fill:#FF6F49;}
	.st82{fill:#FFC45A;enable-background:new    ;}
	.st83{fill:#F9B200;enable-background:new    ;}
	.st84{fill:#F7BC2B;enable-background:new    ;}
	.st85{fill:#FFC45A;}
	.st86{fill:#FF9935;enable-background:new    ;}
	.st87{fill:#FDB51A;enable-background:new    ;}
	.st88{fill:#FAA908;}
	.st89{fill:#FFCB59;enable-background:new    ;}
	.st90{fill:#F0A90B;enable-background:new    ;}
	.st91{fill:#FF9C39;enable-background:new    ;}
	.st92{fill:#F8C141;enable-background:new    ;}
	.st93{fill:#FF9935;}
	.st94{fill:#F1B600;enable-background:new    ;}
	.st95{fill:#F9B200;}
	.st96{fill:#FF9832;enable-background:new    ;}
	.st97{fill:#FFB718;enable-background:new    ;}
	.st98{fill:#FECD55;enable-background:new    ;}
	.st99{fill:#F3B41D;enable-background:new    ;}
	.st100{fill:#FECD55;}
	.st101{fill:#F1B600;}
	.st102{fill:#FFB718;}
	.st103{fill:#FF962E;enable-background:new    ;}
	.st104{fill:#FFC554;enable-background:new    ;}
	.st105{fill:#FF962E;}
	.st106{fill:#F8CE5F;enable-background:new    ;}
	.st107{fill:#FFC554;}
	.st108{fill:#FF9B23;enable-background:new    ;}
	.st109{fill:#779E01;}
	.st110{fill:#99C800;}
	.st111{fill:#528701;}
	.st112{fill:#779E03;}
	.st113{fill:#395D03;}
	.st114{fill:#487800;}
	.st115{fill:#84AB00;}
	.st116{fill:#BEE705;}
	.st117{fill:#497901;}
	.st118{fill:#375C00;}
	.st119{fill:#809E00;}
	.st120{fill:#568F02;}
	.st121{fill:#647915;enable-background:new    ;}
	.st122{fill:#819F00;enable-background:new    ;}
	.st123{fill:#6AB109;enable-background:new    ;}
	.st124{fill:#65A803;enable-background:new    ;}
	.st125{fill:#6AB109;}
	.st126{fill:#80CA1E;enable-background:new    ;}
	.st127{fill:#62A801;enable-background:new    ;}
	.st128{fill:#7FD300;enable-background:new    ;}
	.st129{fill:#BDE604;enable-background:new    ;}
	.st130{fill:#647915;}
</style>
<g id="Layer_5" class="st0">
	
		<image style="display:inline;overflow:visible;enable-background:new    ;" width="835" height="369" xlink:href="E13282A1.jpeg"  transform="matrix(1.6336 0 0 1.6336 0.9814 0)">
	</image>
</g>
<g id="purpMan">
	<polygon class="st1" points="1082,568 1105,568 1114,577 1093,589 	"/>
	<path class="st2" d="M1093,589c0,0-4,6-33,5c0,0-7,7-27,4l15-26.3L1093,589z"/>
	<path class="st3" d="M1082,568c0,0-7-2-16-10s-19,15-19,15L1082,568z"/>
	<polygon class="st4" points="1093,589 1082,568 1048,571.7 	"/>
	<path class="st5" d="M1006,506l19,6l25,31l12,13.3l-29,41.7c0,0-4-28-14-35L1006,506z"/>
	<path class="st3" d="M965,521l41-15l13,57c0,0-7-8-17-7"/>
	<polygon class="st6" points="908,464 1006,506 965,521 	"/>
	<polygon class="st7" points="962,425 1006,506 908,464 	"/>
	<path class="st8" d="M1009,431c0,0,0,21,2,28c0,0-3.3,12.7-22,16l-27-50l47,4V431z"/>
	<path class="st9" d="M1009.7,426.2"/>
	<path class="st9" d="M1009,429c0,2.2-47-4-47-4l19-28l27,28"/>
	<path class="st6" d="M898,533c0,0-1,25,6,30c0,0,11,3,14-9s1-20,1-20L898,533z"/>
	<path class="st7" d="M916,483l15,29l-11,15l-0.6,9.8L898,535v-20c0,0-6-10-2-23C896,492,902,476,916,483z"/>
	<path class="st10" d="M946.3,502.3l-15.6,10.2l-20.5-31.2c0,0,15.5,0.3,12.1-3L946.3,502.3z"/>
	<path class="st10" d="M905,482c0,0-20.8-0.5-10.4,19.8L905,482z"/>
	<polygon class="st11" points="908,464 962,425 887,371 	"/>
	<path class="st12" d="M908,464l-21-93l-31,21C856,392,856,425,908,464"/>
	<polygon class="st13" points="942,343 962,425 923.3,398.1 887,371 	"/>
	<polygon class="st14" points="960,373 981,397 962,425 942,343 	"/>
	<path class="st14" d="M978,351c0,0-8.1,25-18.1,22L942,343L978,351z"/>
	<path class="st13" d="M973,307l26,37c0,0-8,7-21,7s-36-8-36-8L973,307z"/>
	<path class="st15" d="M1026,279l-11,56c0,0-6-3-9,1s-3,6-7,8l-26-37L1026,279z"/>
	<path class="st8" d="M1070,343l-33-57l-11-7l-12,55.6l29,13.4c0,0,8.8,3.6,14,1C1063,346,1070,343,1070,343z"/>
	<path class="st6" d="M1051,310c0,0,13-5,19,8c0,0,6-1,11,1l-11,24L1051,310z"/>
	<path class="st16" d="M1116,342l-46,1l11-24C1081,319,1099,328,1116,342z"/>
	<path class="st17" d="M1149,369c0,0-5,9-13,7v-8c0,0-45-9-75-21l9-4L1149,369z"/>
	<path class="st18" d="M1149,351l18-12c0,0,20-11,4,6s-22,24-22,24l-79-26l46-1l5,3l5,3l6,2l6,2h3h3L1149,351z"/>
	<path class="st17" d="M989,259l-16,48l53-28C1026,279,1014,268,989,259z"/>
	<polygon class="st18" points="912,269 989,259 973,307 	"/>
	<polygon class="st18" points="904,237 945,236 919,256 886,256 	"/>
	<polygon class="st19" points="989,259 912,269 919,256 945,236 	"/>
	<path class="st17" d="M931,198l14,38l15-13c0,0-3-4-6-4l-1-7C953,212,946,202,931,198z"/>
	<path class="st20" d="M886,179l59,57l-14-38c0,0-4-9-10-10l4-7l-5.7-28.5L886,179z"/>
	<polygon class="st17" points="943,164 923,149 919.3,152.5 925,181 	"/>
	<path class="st11" d="M961,147l-18,17l-20-15l16-11c0,0,6,6,21-13c0,0,7-2,2,7c0,0-5,11,22,6c0,0,17,0-3,6L961,147z"/>
	<path class="st11" d="M892,208c0,0-10-3-6-29l16,15L892,208L892,208z"/>
	<path class="st11" d="M945,236L945,236l-41,1l1-4.7c0,0-8-4-11-12s-3.3-13.1-3.3-13.1l10.3-13.9L945,236z"/>
	<polygon class="st20" points="839,343 899,278 863,275 835,306 	"/>
	<polygon class="st14" points="817,327 831,304 855,284 859,321 	"/>
	<polygon class="st8" points="942,343 899,278 973,307 	"/>
	<polygon class="st11" points="859,321 899,278 942,343 	"/>
	<polygon class="st18" points="887,371 942,343 859,321 	"/>
	<path class="st14" d="M855,355l18-9l14,25l-31,21.6C856,392.6,851,367,855,355z"/>
	<path class="st17" d="M817,327h16v5c0,0,3,0,6,3s16,20,16,20l18-9l-14-25L817,327z"/>
	<polyline class="st11" points="973,307 913,269 920,256 899,278 973,307 	"/>
	<polygon class="st15" points="976,235 960,223 945,236 	"/>
	<polygon class="st18" points="989,259 976,235 945,236 	"/>
	<path class="st11" d="M994,198c0,0-9,2-18,37l12.7,24.8L1026,279c0,0-5-10-15-12l7-11L994,198z"/>
	<path class="st17" d="M1032,202l-38-4C994,198,1014,187,1032,202z"/>
	<path class="st20" d="M1027,254c0,0,4-16,8-14s38,19,8-4l-2-1c0,0,6-21-9-33l-38-4l24,58L1027,254z"/>
	<polygon class="st18" points="859,321 831,304 817,327 	"/>
	<polyline class="st6" points="886,256 863,275 899,278.5 920,256 886,256 	"/>
</g>
<g id="redMan">
	<path class="st21" d="M1227,546l-41,54l32-15c0,0,16-1,22-2L1227,546z"/>
	<path class="st22" d="M1227,546c0,0,13-4,15-7c1.9-2.8,8.7-13.1,15-15c0.3-0.1,1.1,0.1,2.1,0.4c1.5,0.5,3.6,1.5,5.4,3.1
		c0.3,0.3,0.6,0.7,0.8,1.1l2.7,5.4l13.5,27c1,2,1.5,4.2,1.5,6.4l-1,17.6c0,0-6,21-27-10c0,0-13,6-15,8L1227,546z"/>
	<path class="st23" d="M1153,537l42,4l1,9c0,0,15,3,31-4l-41,54c0,0-4-7-5-9L1153,537z"/>
	<path class="st24" d="M1153,574l-18-27l18-10l33,63C1186,600,1170,600,1153,574z"/>
	<polygon class="st25" points="1135,547.4 1154,537 1100,498 	"/>
	<path class="st25" d="M1194,474l-42,63l43,5.1V504C1195,504,1205,490,1194,474z"/>
	<polygon class="st26" points="1140,488 1153,537 1100,498 	"/>
	<polygon class="st22" points="1140,488 1194,474 1153,537 	"/>
	<polyline class="st27" points="1066,487 1131,453 1100,498 	"/>
	<polygon class="st28" points="1140,488 1131,453 1100,498 	"/>
	<polygon class="st29" points="1194,474 1140,488 1131,453 	"/>
	<polygon class="st30" points="1161,417 1194,474 1131,453 	"/>
	<polygon class="st31" points="1216,390 1194,474 1161,417 	"/>
	<polygon class="st32" points="1179,369 1216,390 1161,417 	"/>
	<path class="st25" d="M1141,404l20,13l18-48C1179,369,1153,385,1141,404z"/>
	<polygon class="st22" points="1051,432 1131,453 1066,487 	"/>
	<polygon class="st33" points="1051,432 1025,515 1066,487 	"/>
	<path class="st23" d="M1051,432l-26,83c0,0-2-17-6-22c0,0-6,2-8-5v-27L1051,432z"/>
	<path class="st33" d="M1051,432l-25-13c0,0-14-1-17,8c0,0-1,15,2,34L1051,432z"/>
	<path class="st34" d="M1026,419c0,0,13-1,21-1l11.3,15.9l-7.3-1.9L1026,419z"/>
	<polygon class="st35" points="1161,417 1133,416 1141,404 	"/>
	<polygon class="st31" points="1108,414 1131,453 1161,417 	"/>
	<path class="st30" d="M1047,418c0,0,26-3,41,2c0,0,10-5,20-6l23,39l-73-19L1047,418z"/>
	<polygon class="st36" points="1025,515 1052.9,495.8 1052,527 	"/>
	<path class="st37" d="M1065,550l-40-35l46,20C1071,535,1070,542,1065,550z"/>
	<path class="st25" d="M1071,535c0,0,1-6-3-8s-20-2-20-2L1071,535z"/>
	<path class="st25" d="M1025,515l40,35l-1,2c0,0,1.5,26.5-12,40c-2,2-2,2-4,4c0,0-8,2-10-21C1035.9,551,1029,561,1025,515z"/>
	<polygon class="st33" points="1065,550 1036,558 1047,573 	"/>
	<polygon class="st33" points="1047,573 1052,592 1049,595 1048,596 	"/>
	<path class="st36" d="M1039.9,586.6l7.1-11.6l1,21C1048,596,1042,597,1039.9,586.6z"/>
	<polygon class="st38" points="1179,369 1202,356 1216,390 	"/>
	<polygon class="st38" points="1262,336 1216,390 1286,401 	"/>
	<path class="st39" d="M1202,356c0,0,13-9,22-11s10-9,10-9h28L1202,356z"/>
	<polygon class="st25" points="1202,356 1243,342 1216,390 	"/>
	<polygon class="st40" points="1262,336 1216,390 1243,342 	"/>
	<path class="st22" d="M1286,401c0,0-10,1-10,21l-17,31l-43-63L1286,401z"/>
	<path class="st28" d="M1289,453v-13c0,0-10-9-13-19l-17,32H1289z"/>
	<polygon class="st28" points="1289,464 1289,453 1259,453 	"/>
	<polygon class="st38" points="1239,451 1215,451 1213,453 1205,453 1202,454 1199,455 1216,390 	"/>
	<polygon class="st38" points="1259,453 1241,457 1216,390 	"/>
	<polygon class="st25" points="1259,453 1244,469 1267,469 	"/>
	<polygon class="st41" points="1240.9,456.7 1244.3,468.7 1259,453 	"/>
	<polygon class="st42" points="1275,485 1259,453 1289,464 	"/>
	<polygon class="st41" points="1296,514 1280,525 1275,485 	"/>
	<polygon class="st22" points="1289,464 1286,487 1296,514 1275,485 	"/>
	<polygon class="st29" points="1259.9,469 1280.3,524.8 1275,485 1267,469 	"/>
	<polyline class="st21" points="1302,536 1295.8,513.5 1280,525 1300,535 	"/>
	<polygon class="st29" points="1284,551 1308,562 1308,556 1307,546 1303,540 1282,539 	"/>
	<polygon class="st43" points="1280,525 1302,536 1303,540 1282,539 	"/>
	<path class="st22" d="M1308,562l-18,18v-16c0,0-5-5-6-13L1308,562z"/>
	<path class="st44" d="M1308,562c0,0,5,5,8,12l-26,6L1308,562z"/>
	<polygon class="st29" points="1309,586 1316,574 1299.3,577.9 	"/>
	<polygon class="st21" points="1290,580 1309,586 1303,577 	"/>
	<polygon class="st45" points="1301,599 1309,586 1290,580 	"/>
	<path class="st21" d="M1309,586l20,5c0,0,12,2,11,3c-3.5,3.5-25,0-25,0L1309,586z"/>
	<polygon class="st29" points="1302,599 1308,591 1315,594 1309,586 1301,599 	"/>
	<polygon class="st45" points="1295,589 1308,591 1302,599 1301,599 	"/>
	<path class="st22" d="M1309,586l31,8c0.2,0,0.1,0.1,0,0l-24.2-19.7L1309,586z"/>
	<path class="st22" d="M1262,336c0,0,16-18,36-25l22-12l-45.8,70L1262,336z"/>
	<polygon class="st21" points="1315,330 1320,324 1320,299 1305.9,320.5 	"/>
	<polygon class="st31" points="1286,401 1274,369 1311,340 1298,397 	"/>
	<path class="st35" d="M1300,400l41,1v-10c0,0,3-5,11,0s9-4,9-4l-36-47h-14l-13,57C1298,397,1300,397,1300,400z"/>
	<path class="st35" d="M1315,330l-5,6c0,0,0,3,1,4l-37,29l32-49L1315,330z"/>
	<path class="st30" d="M1332,336c0,0-6-19-12-12v-25c0,0,19-16,31,34L1332,336z"/>
	<path class="st25" d="M1361,387c0,0,8-10-8-30l-2-24l-19,3l1,4h-8.8L1361,387z"/>
	<path class="st35" d="M1300,400l-4,7c0,0-4,8,2,2c0,0,5-10,4,2s-2,14-2,14s7-19,5-4s-1,7-1,7l4-11c0,0,4-12,3,10s2,7,2,7l4-12
		c0,0,5-15,5,10s2,1,2,1s2-2,2,3s3,2,3-1s0-12,0-12s1-8,3,0s3-11,3-11s3-6,4,0s3,0,3,0l-1-11L1300,400z"/>
	<polygon class="st21" points="1241,540 1228.5,550.4 1234.9,568.5 	"/>
	<polygon class="st25" points="1255,574 1240.9,582.3 1245,560 1258.5,564.6 1275,548 	"/>
	<path class="st24" d="M1277,591l-2-43l-13,25C1262,573,1274,586,1277,591z"/>
	<path class="st24" d="M1269,536"/>
	<path class="st24" d="M1244.5,535"/>
	<path class="st24" d="M1241.4,539.7c0,0,16.6-35.7,29.6,0.3l-22,2l-14,26L1241.4,539.7z"/>
</g>
<g id="blueGirl">
	<path class="st46" d="M828,199h29c0,0,4,4,1,4s-8,3,4,5s-7,3-7,3l6,8c0,0,8,5,2,4s2,9-4,1l-7-6c0,0-10-10,1,6c0,0,5,9,1,18s2-9-2-6
		s-7,9-2-3c0,0-3-9-12-10L828,199z"/>
	<path class="st47" d="M772,535h-19v13c0,0-3,2-4,5s0,13,0,13l-9,29L772,535"/>
	<path class="st48" d="M742,464l30,71h-19C753,535,745,499,742,464z"/>
	<polygon class="st49" points="771,476 772,535 742,464 	"/>
	<polygon class="st50" points="762,447 771,476 742,464 	"/>
	<polygon class="st51" points="729,407 742,464 728,455 	"/>
	<polygon class="st52" points="749,430 762,447 742,464 729,407 	"/>
	<polygon class="st51" points="761,396 750,400 741,403 729,407 731,372 	"/>
	<polygon class="st53" points="744.2,424.5 744,410 729,407 	"/>
	<polygon class="st54" points="741,403 744,410 729,407 	"/>
	<polygon class="st54" points="764,412 744,410 761,396 	"/>
	<polygon class="st49" points="750,400 761,396 744,410 741,403 	"/>
	<polygon class="st55" points="770,413 761,396 764,412 	"/>
	<polygon class="st49" points="744,410 762,447 744,425 	"/>
	<g id="Layer_4">
		<polygon class="st56" points="750,596 750,576 764,586 		"/>
		<path class="st57" d="M772,535l12,26l-5,5c0,0-9-3-10,15l-5,5l-14-10L772,535z"/>
		<path class="st58" d="M782,541c0,0,14,9,5,16l-3,4l-12-26L782,541z"/>
		<path class="st58" d="M750,576v20c0,0-7,1-10-1L750,576z"/>
	</g>
	<path class="st59" d="M770,413c0,0-4,7-8,34l-18-37l20,2L770,413z"/>
	<polygon class="st60" points="761,396 797,423 781,434 770,413 	"/>
	<path class="st61" d="M811,455l-14-32l-16,11C781,434,788,469,811,455z"/>
	<path class="st49" d="M828,427l-31-4l14,32l14-8l-1-13C824,434,824,430,828,427z"/>
	<polygon class="st48" points="840,357 797,423 828,427 851,378 	"/>
	<polygon class="st61" points="858,369 851,378 840,357 838,350 845,354 	"/>
	<polygon class="st50" points="884,346 844,355 858,369 	"/>
	<path class="st62" d="M848,336l-4,19l-6-5l-3-3c0,0-5-5,3-8C838,339,842,337,848,336z"/>
	<path class="st63" d="M848,336l12-1c0,0,16-11,33-6c0,0,3,10-9,17l-40,9L848,336z"/>
	<path class="st62" d="M775,341l-14,55l-30-24c0,0,9-18,20-18S775,341,775,341z"/>
	<polygon class="st51" points="797,423 775,341 761,396 	"/>
	<path class="st51" d="M750.6,400.7"/>
	<polygon class="st60" points="840,357 828,427 851,378 	"/>
	<polygon class="st64" points="775,341 812,347 810,393 840,357 797,423 	"/>
	<path class="st49" d="M795,317c0,0,17,3,17,30l-37-6L795,317z"/>
	<path class="st55" d="M736,328l39,13l-2,2l-2,2l-4,3l-9,6l-10,7l-17,11l2-16c0,0,0.6-3,1.4-9.1C734.9,342.3,735.6,336.1,736,328z"
		/>
	<path class="st55" d="M732.2,268.1L785,293c0,0-1,16,10,24l-20,24L732.2,268.1z"/>
	<path class="st49" d="M736.2,328.1l39,13l-43-73c0,0,0.6,5.1,1.4,14.9c0.2,2,0.5,5.6,0.8,8.1c0.1,1,0.3,2.5,0.3,3.4
		c0.2,3.5,0.6,6.2,0.9,9.4c0.1,0.8,0.2,1.8,0.3,2.8c0,0.3,0.1,0.6,0.1,0.8c0,0.4,0,0.3,0,0.4c0,0,0,0,0,0
		C736.3,322.5,736.3,323.2,736.2,328.1z"/>
	<path class="st62" d="M796,261l-3.6,0.4l-10.7,1.2l-37.1,4.1l-12.4,1.4L785,293C785,293,784.5,269,796,261z"/>
	<path class="st51" d="M773,235l43.1,21.5c0,0-13.5-2.5-20.1,4.5l-63.8,7.1L773,235z"/>
	<path class="st65" d="M734,236l39-1l-40.8,33.1c0,0,1.6-10.7,1.8-12.1C735,250,736,246,734,236z"/>
	<path class="st48" d="M748,208l25,27l-39,1C734,236,739,222,748,208z"/>
	<path class="st64" d="M761,188l12,47l-25-27C748,208,748,192,761,188z"/>
	<polygon class="st51" points="828,199 773,235 761,189 754.6,145.5 	"/>
	<path class="st64" d="M811,131l17,68l-43.7-31.9C784.3,167.1,783,145,811,131z"/>
	<polygon class="st49" points="763,138 779.8,164.9 754.6,145.5 	"/>
	<path class="st66" d="M828,199l-27.4,17.8L773,235l84,42l-6-25l-5-6l-4-3l-6-4c0,0-8-17-2-12s3,1,2-3s2-1,2-1L828,199z"/>
	<polygon class="st67" points="871,261 857,277 851,252 863,260 	"/>
	<path class="st49" d="M920,263l4,19c0,0-52.6,4-67-5l13-16L920,263z"/>
	<path class="st61" d="M941.1,235c2.8,6,8.4,24.8-17.1,47l-4-19c0,0,14.1-17.6,19.1-28.1C939.5,234.1,940.7,234.2,941.1,235z"/>
	<path class="st61" d="M921,262v-4.2c0-2.2,2-12.8,3.7-4.4l3.3-0.6l-6.2,8.2"/>
	<path class="st64" d="M763,138l-9.4-10.4c-0.3-0.3-0.9-0.4-1.2,0L746,134L763,138z"/>
	<polygon class="st60" points="754.6,145.5 746,134 763,138 	"/>
	<polygon class="st48" points="729,145 746,134 754.6,145.5 	"/>
	<path class="st62" d="M722,180l32-34l-25-3c0,0-8,1-3,13c0,0,0,13-6,17C720,173,719,181,722,180z"/>
	<polygon class="st49" points="735,153 740,161 754.6,145.5 729,143 	"/>
	<path class="st46" d="M811,131l6,1c6-8,3,0,3,0h4c0,0-4,4,5-6s8-6,2,2s1,3,1,3s23-18,8-3s3,2,3,2s29-22,9-2s0,7,0,7
		c17-21,12-8,12-8s-17,28,1,6s7,0,2,4s-1,4-1,4s19-8,4,0s-9,8-9,8c24-3,15,1,15,1l-16,1l-24.8,37.5L828,199L811,131z"/>
	<path class="st46" d="M857,198c0,0,4-9,5-8s26,23,4,1s3-5,3-5s4,3,2-2s4,0,4,0s29,19,6-1c0,0-5-5,2-2s-17-16-23-18c0,0-8-4,2-3
		s1-2,1-2s-6-4,2-4s14,1,14,1s9-4-5-4s-14,0-14,0l-32,48h29V198z"/>
</g>
<g id="orangeMan3">
	<path class="st68" d="M288.8,595.1c13-7.9,11.3-19.1,11.3-19.1c0-38.5-7-54.9-7-54.9"/>
	<polygon class="st69" points="266.2,521.1 270.7,560.2 293.2,521.1 	"/>
	<polygon class="st68" points="225,525.7 270.7,560.2 266.2,521.1 	"/>
	<polygon class="st70" points="185.3,500.1 242.3,500.1 266.2,521.1 225,525.7 	"/>
	<path class="st71" d="M270.7,560.2l22.5-39.1l-4.3,74c0,0-14.5-1.3-12.7-22C276.2,573.1,278.3,561.1,270.7,560.2z"/>
	<path class="st72" d="M171,471l71.3,29.1h-57C185.3,500.1,172.6,498.5,171,471z"/>
	<path class="st73" d="M171,471c0,0,11.9-17,32.3-16.9l33.4,39.3l5.7,6.7L171,471z"/>
	<path class="st74" d="M203.3,454.1l33.4,39.3c0,0,33,2.3,42-3.9l-14.1-58.9L203.3,454.1z"/>
	<path class="st72" d="M264.5,430.6l14,58.2c0,0,23.4-1.4,34.4-25L264.5,430.6z"/>
	<polygon class="st72" points="182.5,407.1 203.3,454.1 162.6,432.6 	"/>
	<polygon class="st75" points="328.6,347 300.3,399.3 269.6,376.9 276.6,364.3 275.9,357 	"/>
	<polygon class="st74" points="356,395.5 405.9,387.3 328.6,347 	"/>
	<polygon class="st76" points="300.3,399.3 356,395.5 319.5,363.9 	"/>
	<polygon class="st72" points="328.6,347 356,395.5 319.5,363.9 	"/>
	<polygon class="st70" points="182.5,407.1 203.3,454.1 264.5,430.6 	"/>
	<polygon class="st70" points="300.3,399.3 264.5,430.6 252,401.8 269.6,376.9 	"/>
	<path class="st74" d="M312.9,463.8l23.4-46.5c0,0,2.3-4.8,5.8-1.8l2.7-19.2l-44.5,3l-35.8,31.4L312.9,463.8z"/>
	<path class="st75" d="M182.5,407.1l-1.3-17.4c0,0,49.8,3.5,70.8,12l12.5,28.9L182.5,407.1z"/>
	<path class="st75" d="M40,344.5l42,60.8l24-25.3C106,380,64.5,369.3,40,344.5z"/>
	<path class="st77" d="M106,380l18.3,40.5c0,0-22-2.8-42.3-15.3L106,380z"/>
	<path class="st78" d="M40,344.5l42,60.8c0,0-48.8-29-71.3-22.5L40,344.5z"/>
	<path class="st70" d="M9.3,339.3l30.8,5.3l-29.3,38.3C10.8,382.8-2.5,389.8,9.3,339.3z"/>
	<path class="st72" d="M10.8,328.8l23.5-5.8c0,0-1.4,6.5,2.4,12.5s3.4,9,3.4,9l-30.8-5.3L10.8,328.8z"/>
	<path class="st79" d="M16.6,313.6c0,0,14.2-22.7,17.4,1.7l0.3,7.8l-23.5,5.8L16.6,313.6z"/>
	<path class="st79" d="M106,380l76.5,27.1l-19.9,25.5c0,0-19.6-11.1-38.4-12.1L106,380z"/>
	<path class="st70" d="M181.3,389.8c0,0-40.3-8.9-75.3-9.8l76.5,27.1L181.3,389.8z"/>
	<path class="st68" d="M356,395.5l-11.3,0.8l-2.7,18.9c0,0,5-3.5,4.4,2.4c0,0,6.3,4,11.4-3.3L356,395.5z"/>
	<polygon class="st77" points="405.9,387.3 392.8,393.5 368.3,405.2 357.8,414.3 356,395.5 	"/>
	<polygon class="st70" points="328.6,347 400.2,324.5 405.9,387.3 	"/>
	<path class="st75" d="M405.9,387.3l13.6,21.3c0,0-39.1,26.4-42.7,1.7c0,0,2.6-8-8.5-5L405.9,387.3z"/>
	<polygon class="st75" points="400.2,324.5 405.9,387.3 458.6,381.6 	"/>
	<polygon class="st80" points="405.9,387.3 458.6,381.6 419.5,408.5 	"/>
	<path class="st77" d="M400.2,324.5c0,0,44.5,13.8,66.8,58.1l-8.4-1L400.2,324.5z"/>
	<path class="st77" d="M282.2,311.3c0,0-7.4,9.6-6,13.9l-0.3,31.8l52.8-10L282.2,311.3z"/>
	<polygon class="st80" points="345.5,296.3 328.6,347 294.5,274.2 	"/>
	<path class="st70" d="M240.9,216.9l26.9,78.7l26.7-21.5C294.5,274.2,273.9,238,240.9,216.9z"/>
	<polygon class="st68" points="294.5,274.2 328.6,347 282.2,311.3 267.8,295.7 	"/>
	<polygon class="st68" points="328.6,347 370,300.8 400.2,324.5 	"/>
	<polygon class="st75" points="345.5,296.3 368.9,276.8 370,300.8 328.6,347 	"/>
	<path class="st75" d="M240.9,216.9l26.9,78.7c0,0-23.7-27.8-28.2-43.8c0,0-1.8-11.2-10.7-20.3L240.9,216.9z"/>
	<path class="st75" d="M370,300.8l47.8-29.9c0,0,2.8,21.8-17.7,53.6L370,300.8z"/>
	<polygon class="st75" points="417.8,270.9 394.4,277.6 387.3,250.5 	"/>
	<path class="st70" d="M368.9,276.8c0,0,13.3-13.3,18.4-26.3l7,27.1l23.5-6.7L370,300.8L368.9,276.8z"/>
	<polygon class="st75" points="405.3,218.5 387.3,250.5 417.8,270.9 	"/>
	<path class="st77" d="M432.8,227l-27.6-8.5l12.6,52.4C417.8,270.9,427,260.2,432.8,227z"/>
	<path class="st81" d="M295.3,271.3c0,0-5.9-31.8,23.4-29.4l-1.1,27.8c0,0-2.3,12.6,19.4,14.8l8.5,2.3v9.7l-51-22.2L295.3,271.3z"/>
	<path class="st80" d="M345.5,286.7c0,0-41.2,8.4-26.9-44.9C318.6,241.8,354,238.2,345.5,286.7z"/>
	<path class="st68" d="M240.9,216.9l-4.8-6.6c0,0,2-29.8-4.5-7.8c0,0-2.4,4.1-5.2-3.8s-5.9-11.4-5.9-11.4s-6-3.4-3.4,4.3
		c0,0,7.1,14.5-3.4,3.5c0,0-12.7-9.6-5.7,2.2c0,0,12.8,12.4-1.9,4.1c0,0-8.8-2.4-0.1,6.4c0,0,12.5,6.8,0.6,6c0,0-9.6-1.5,0,6
		c0,0,14.8-1.9,22.5,11.9L240.9,216.9z"/>
	<path class="st68" d="M427.1,176.1l1.5-8c0,0-14.4-26.1,0.8-9c0,0,3.9,2.7,3.1-5.6c-0.7-8.3,0.6-12.8,0.6-12.8s4-5.6,4.9,2.4
		c0,0-0.3,16.2,4.5,1.7c0,0,7.5-14.1,6.1-0.4c0,0-6.4,16.7,3.4,2.9c0,0,7-5.9,2.8,5.8c0,0-8.5,11.4,2,5.7c0,0,8.1-5.4,2.5,5.4
		c0,0-14.2,4.5-15.4,20.2L427.1,176.1z"/>
	<polygon class="st72" points="432.8,227 427.1,176.1 405.3,218.5 	"/>
	<polygon class="st70" points="443.9,184.7 432.8,227 427.1,176.1 	"/>
</g>
<g id="yelloweMan">
	<path class="st82" d="M563.4,592.5l-49.2,3c0,0-28.3,3.5,2.5-17.3l0.6,0.2L563.4,592.5z"/>
	<polygon class="st83" points="542.8,555.4 559.8,592 516.8,578.3 	"/>
	<path class="st84" d="M542.8,555.4c0,0,18.5,8.6,22.8,24.9s-5.8,11.8-5.8,11.8"/>
	<path class="st85" d="M528.2,549.3c0,0,4.3,4.3,2,17.2l13-10.9L528.2,549.3z"/>
	<path class="st86" d="M511.4,522.8h30c0,0,17.8,46,21.7,51.4l-20-18.7l-14.9-6.3L511.4,522.8z"/>
	<path class="st87" d="M519.8,479.9l15,42.9h6.7C541.4,522.8,535.4,495.3,519.8,479.9z"/>
	<polygon class="st88" points="519.8,479.9 511.4,522.8 535.3,522.8 	"/>
	<polygon class="st89" points="519.8,479.9 513.8,464.9 493.4,504.3 511.4,522.8 	"/>
	<polygon class="st90" points="527.4,471.4 519.8,479.9 513.8,464.9 	"/>
	<path class="st91" d="M513.8,464.9l-20.4,39.4c0,0-15.5-5.6-16.9-20.5L513.8,464.9z"/>
	<polygon class="st86" points="437.8,455.1 459.3,492 476.5,483.8 	"/>
	<polygon class="st84" points="479.5,460.8 476.5,483.8 513.8,464.9 	"/>
	<polygon class="st89" points="437.8,455.1 479.5,460.8 476.5,483.8 	"/>
	<polygon class="st92" points="437.8,455.1 410.3,496.6 459.3,492 	"/>
	<polygon class="st93" points="403.7,508.3 459.3,492 410.3,496.6 	"/>
	<polygon class="st93" points="439.1,512.5 459.3,492 403.7,508.3 	"/>
	<path class="st83" d="M395.3,521.1l13.3,18.3c0,0,20.2-10.1,30.5-26.8l-35.4-4.3L395.3,521.1z"/>
	<polygon class="st94" points="375,539.3 395.3,521.1 408.6,539.3 	"/>
	<polygon class="st95" points="375,539.3 354.1,538.8 356.2,561.4 	"/>
	<polygon class="st93" points="383.8,562.2 356.2,561.4 375,539.3 408.6,539.3 	"/>
	<path class="st92" d="M372,580.6c0,0,8.8-7.2,11.8-18.4l-27.6-0.8L372,580.6z"/>
	<path class="st83" d="M365.3,586.5c0,0,4.2-2.1,6.8-5.9l-15.8-19.2l-1.3,15.8L365.3,586.5z"/>
	<path class="st96" d="M354.9,577.2l1.3-15.8"/>
	<path class="st86" d="M354.1,538.8l-21.1-17.7c0,0-10.2-7.4-7.9,0c0.8,2.5,2.9,6.5,7.4,13.1l23.8,27.2L354.1,538.8z"/>
	<path class="st89" d="M354.9,577.2c0,0-37.5-43.7-30.2-58.1l31.5,43.1L354.9,577.2z"/>
	<polygon class="st97" points="484.1,391.8 437.8,455.1 513.8,465.6 	"/>
	<polygon class="st98" points="547.4,452.3 527.4,471.4 513.8,465.6 484.1,391.8 	"/>
	<polygon class="st99" points="549.3,374.6 507.1,413.8 484.1,391.8 513.8,383.8 	"/>
	<path class="st100" d="M549.3,374.6l44.3,1c0,0-2.2,38.5-29.3,57.1L549.3,374.6z"/>
	<polygon class="st94" points="547.4,452.3 564.3,432.7 549.3,374.6 	"/>
	<polygon class="st97" points="547.4,452.3 549.3,374.6 507.1,413.8 	"/>
	<path class="st101" d="M575.2,320.3c0,0,23.2,24.4,18.5,55.3l-44.3-1L575.2,320.3z"/>
	<polygon class="st97" points="506.6,311.3 549.3,374.6 575.2,320.3 	"/>
	<polygon class="st93" points="509.3,362.3 484.1,391.8 549.3,374.6 506.6,311.3 	"/>
	<polygon class="st93" points="543.2,238 575.2,320.3 506.6,311.3 	"/>
	<polygon class="st94" points="471.5,230.6 543.2,238 506.6,311.3 	"/>
	<polygon class="st102" points="426.5,270.9 471.5,230.6 506.6,311.3 	"/>
	<path class="st101" d="M539.5,216.8c0,0,40.1,65.2,35.7,103.4l-32-82.3L539.5,216.8z"/>
	<path class="st90" d="M471.5,230.6l22.6-24.3c0,0,10.8-17.3,31.5-22.3l17.5,54L471.5,230.6z"/>
	<path class="st103" d="M557.5,170.1c0,0-21.1-0.8-31.9,13.9l17.5,54l-4.7-27L557.5,170.1z"/>
	<path class="st104" d="M538.5,211c0,0,29.9-1.6,42.5-37.4l-23.5-3.5L538.5,211z"/>
	<polygon class="st105" points="542.3,133.7 557.5,170.1 581,173.6 	"/>
	<path class="st106" d="M549.6,121.8c0,0,25.4,18.6,31.4,51.8l-38.7-40L549.6,121.8z"/>
	<path class="st107" d="M549.6,121.8c0,0-7-3.7-7.5-9s-0.7-10.7-0.7-10.7s7.3-12.6-4.6-1.6c0,0-6.3-2.2-12.1-6.7
		c-5.5-4.3-14.6-12.8-12.5-3.9c1.1,4.5,20,25.4,20,25.4l3.9,10.8l6.1,7.5"/>
	<path class="st107" d="M471.5,210.3c0,0,13.6,1.2,22.6-4.1l-22.6,24.3V210.3z"/>
	<path class="st103" d="M376.8,301.3l88.3-10.9v6.7c0,0-10.3-1.1-27.5,4.3C437.7,301.4,407.5,312,376.8,301.3z"/>
	<path class="st101" d="M506.6,311.3c0,0-21.6,0.2-41.4-14.2v-6.7L506.6,311.3z"/>
	<path class="st94" d="M376.8,301.3l22-23.3c0,0,10.7-13.9,27.7-7.1l38.6,19.5L376.8,301.3z"/>
	<path class="st102" d="M368.4,268.1l1.6,31.6c0,0,1,2.6,6.8,1.6l24.6-26l-7.1,2.3l-2.4-9.1L368.4,268.1z"/>
	<polygon class="st101" points="368.4,235.1 392,268.6 368.4,268.1 	"/>
	<polygon class="st108" points="369.3,219.1 381.8,229.1 392,268.6 368.4,235.1 	"/>
	<path class="st102" d="M406.2,186l18.7-14c0,0,10.7-5.3,15.8,1.6l8.2,6.4c0,0,32.8-12.5,10.8,5.3c0,0-1.7,16.7,11.8,25L406.2,186z"
		/>
	<polygon class="st101" points="406.2,186 471.5,210.3 471.5,230.6 	"/>
	<path class="st101" d="M381.8,229.1l1.5-7.5l12.2-10.7l2.1,0.7c1.2,0.4,2.4-0.5,2.4-1.8v-14.3c0-0.7-0.6-1.3-1.3-1.3h-10.4
		c-2.1,0-4.1,1.1-5.2,2.9l-13.9,21.8"/>
	<path class="st103" d="M406.2,186l65.3,44.6l-25.2,22.6c0,0-6.2-1.8-8.8-9.3l-18-1.8c0,0,0-17.5-10.3-1.2
		c-10.3,16.3,0.2-15.2,0.2-15.2l-9.3-16.5C400,209.2,396.8,193,406.2,186z"/>
</g>
<g id="greenGirl">
	<path class="st109" d="M627,581h0.8H648l-4,9c0,0-9,21-17-1"/>
	<path class="st110" d="M627,542c0,0-13.4,4.8,5.7,20c0.8,0.7,1.3,1.7,1.2,2.8c-0.3,3.2-1.7,10.3-6.9,16.2h21v-11L627,542z"/>
	<path class="st111" d="M638,534l18,3c0,0,2,14.8-8,33.4L627,542L638,534z"/>
	<polygon class="st111" points="665,462 673,493 656,537 638,534 	"/>
	<polygon class="st112" points="680,472 673,493 665,462 	"/>
	<path class="st112" d="M665,462h-12c0,0-5.8,22.2-9.4,57.1L665,462z"/>
	<path class="st112" d="M692,442l-27,20l15,10c0,0,0.9-10.1,4-14C688,453,692,442,692,442z"/>
	<polygon class="st113" points="664.7,434.6 653,462 665,462 	"/>
	<path class="st110" d="M650,430c0,0,74,25,46,4c0,0-18-9-26-19c0,0-5-7-13-8s-23-23-23-23L650,430z"/>
	<polygon class="st111" points="692.6,441.8 664.7,434.6 665,462 	"/>
	<polygon class="st111" points="623,401 632,378 650,430 	"/>
	<polygon class="st114" points="591,376 623,401 632,378 	"/>
	<path class="st115" d="M594,325l38,53l-41-2c0,0-19-10-22-21S594,325,594,325z"/>
	<polygon class="st116" points="651,303 636,359 621,359 632,378 632,378 594,325 	"/>
	<path class="st111" d="M594,325l-25,30c0,0-14.6-19.6,24.7-29.8"/>
	<polygon class="st117" points="686,355 636,359 651,303 	"/>
	<path class="st118" d="M703,416l-32-15l-7.4,8.3L679,431l19.5,5C698.5,436,692,425,703,416z"/>
	<path class="st116" d="M725,374c0,0,0,17-22,42l-32-15l15-46L725,374z"/>
	<path class="st119" d="M733,356h-4c0,0-1.3,14.5-3.9,17.9c0,0-0.1,0.2-0.1,0.1c-5-2.7-39-19-39-19l30-36l18.4,27.8
		C734.4,346.8,734,351,733,356z"/>
	<polygon class="st118" points="651,303 716,319 686,355 	"/>
	<path class="st120" d="M736,308c0,0,1.4,27.8-1.6,38.8L716,319L736,308z"/>
	<polygon class="st120" points="695,236 716,319 651,303 	"/>
	<polygon class="st121" points="732.2,268.1 695,236 716,319 736,308 732.9,275 	"/>
	<path class="st122" d="M720.3,218.6c0,0,11.2,12.9,12,49.5L695,236L720.3,218.6z"/>
	<path class="st123" d="M654.6,230.6l0.5,7.9l2,30.8c0,0,2.9,6.5,1.4,22.4L695,236L654.6,230.6z"/>
	<polygon class="st111" points="624.3,224.9 654.6,230.6 628.4,267.6 	"/>
	<path class="st119" d="M658.5,275.7c0,0-10.3-34.5-30.1-8.1l26.2-37.1L658.5,275.7z"/>
	<path class="st122" d="M622,271.4l-20.1-19.8c0,0,12.6-8.7,22.4-26.6l4.1,42.7L622,271.4z"/>
	<polygon class="st121" points="581.8,292.5 622,271.4 601.9,251.5 575.2,267.6 	"/>
	<path class="st116" d="M504.5,290.8c0,0,32.1,2.1,70.7-23.1l6.7,24.9C581.8,292.5,567.3,313.3,504.5,290.8z"/>
	<polygon class="st118" points="503.1,303.4 550.4,301.2 504.8,290.7 	"/>
	<path class="st115" d="M505.5,290.8l-1.7,12.8c0,0-15.5,15.7-4.6-2.6c0,0-44,6.7-29.3-0.3C470,300.6,487.2,289.9,505.5,290.8z"/>
	<path class="st124" d="M660.9,165.6L695,236l-21.8-2.6l-18-2.8l-30.5-5.6c0,0,12.2-9.8,18.3-17c0,0,1.5-9-1.3-8L660.9,165.6z"/>
	<polygon class="st125" points="676.4,197.7 720.3,218.6 695,236 	"/>
	<path class="st126" d="M664.8,158.6l-3.9,7l15.5,32.1l43.8,20.9c0,0-2.8-12.7-11.8-25.4C699.4,180.5,664.8,158.6,664.8,158.6z"/>
	<path class="st127" d="M697.5,138.5c0,0,13.8,17.4,8.9,38.5l-41.6-18.4L697.5,138.5z"/>
	<path class="st128" d="M707.2,191.6c0,0,2.1-6.2-0.8-14.6l-41.6-18.4L707.2,191.6z"/>
	<path class="st118" d="M664.8,158.6l-44.6-9.3c0,0-3.8,6.2-1.1,12.2c0,0,10.2,5.5-1.7,14.6c0,0-9.8-0.3-14.6,1.8
		c-4.8,2.1-8.5,6.3,2.9,2.6c0,0,21.2-3.5,2.3,9.9c-18.9,13.4-21.9,18.1,0.7,7.2c22.6-10.8-3.5,9.9-3.5,9.9s-10,9.1,16.5-7.2
		s1.5,6.3-0.4,7.6c-1.9,1.3-16.2,12.3,18.1-6.5l2.3-1.5L664.8,158.6"/>
	<path class="st129" d="M644.9,122.7c0,0-23.6-3.6-24.7,26.7l44.6,9.3L644.9,122.7z"/>
	<path class="st122" d="M666,105.5l25.4,11c0,0,5.1,13.3,6.1,22l-32.7,20.1l4-27.6L666,105.5z"/>
	<path class="st130" d="M662.8,72.3c0,0,0.6,21.4,3.2,33.3l25.4,11L662.8,72.3z"/>
	<path class="st129" d="M677.1,71.8c0,0,10,20,14.3,44.7l-28.6-44.3L677.1,71.8z"/>
	<path class="st122" d="M661.2,54.8c0,0-2.4-2,1.6,17.5l10.3-33.4L661.2,54.8z"/>
	<path class="st115" d="M677.1,71.8c0,0-8.4-12.4-4-32.9l-10.3,33.4L677.1,71.8z"/>
	<path class="st118" d="M663.1,26.4c0,0-2.1,21.8-2.4,29l12.3-16.5c0,0-0.4-8.2,5.5-12.1L663.1,26.4z"/>
	<path class="st115" d="M690.3,13.4c0,0-2.3,6.9-11.8,13.4l-15.4-0.4c0,0-0.7-10.4,9.5-22.9c0,0,7.9-6.1,3.7,4.9
		c-4.2,11-1.2,6.6,5.2,2.4C681.5,10.8,698.1-7.5,690.3,13.4z"/>
	<path class="st118" d="M650.7,14.7"/>
	<path class="st130" d="M644.9,122.7c0,0,15.2-2.4,24,8.3l-4,27.6L644.9,122.7z"/>
	<path class="st129" d="M663.1,26.4l9.9,12.5c0,0-0.9-7.5,5.5-12.1L663.1,26.4z"/>
</g>
</svg>
